<svg width="18" height="18" viewBox="0 0 18 18" fill="none" xmlns="http://www.w3.org/2000/svg">
<path fill-rule="evenodd" clip-rule="evenodd" d="M12.5571 0.200195H5.44333C2.55225 0.200195 0.200195 2.55225 0.200195 5.44333V12.5571C0.200195 15.4481 2.55225 17.8002 5.44333 17.8002H12.5571C15.4481 17.8002 17.8002 15.4481 17.8002 12.5571V5.44333C17.8002 2.55225 15.4481 0.200195 12.5571 0.200195ZM16.0296 12.5571C16.0296 14.4749 14.4749 16.0296 12.557 16.0296H5.44332C3.52548 16.0296 1.97074 14.4749 1.97074 12.5571V5.44333C1.97074 3.52546 3.52548 1.97075 5.44332 1.97075H12.557C14.4749 1.97075 16.0296 3.52546 16.0296 5.44333V12.5571ZM4.44821 9.00025C4.44821 6.49031 6.49022 4.44829 9.00019 4.44829C11.5102 4.44829 13.5522 6.49028 13.5522 9.00025C13.5522 11.5102 11.5102 13.5522 9.00019 13.5522C6.49022 13.5522 4.44821 11.5102 4.44821 9.00025ZM9.00019 11.7817C7.46404 11.7817 6.21876 10.5364 6.21876 9.00023C6.21876 7.46407 7.46407 6.2188 9.00019 6.2188C10.5363 6.2188 11.7816 7.46407 11.7816 9.00023C11.7816 10.5363 10.5363 11.7817 9.00019 11.7817ZM14.6517 4.4824C14.6517 5.0848 14.1634 5.57315 13.561 5.57315C12.9586 5.57315 12.4702 5.0848 12.4702 4.4824C12.4702 3.88 12.9586 3.39165 13.561 3.39165C14.1634 3.39165 14.6517 3.88 14.6517 4.4824Z" fill="white"/>
</svg>
