<svg width="20" height="20" viewBox="0 0 20 20" fill="none" xmlns="http://www.w3.org/2000/svg">
<path fill-rule="evenodd" clip-rule="evenodd" d="M14.3254 12.8985L19.7053 18.2783C19.8944 18.4676 20.0006 18.7242 20.0005 18.9917C20.0004 19.2592 19.894 19.5157 19.7048 19.7048C19.5156 19.8939 19.259 20.0001 18.9915 20C18.724 19.9999 18.4674 19.8935 18.2783 19.7043L12.8985 14.3244C11.2902 15.5701 9.26782 16.1563 7.24271 15.9638C5.21761 15.7712 3.3419 14.8145 1.99718 13.2881C0.652463 11.7617 -0.0602638 9.78035 0.00399624 7.74712C0.0682562 5.7139 0.904675 3.78152 2.3431 2.3431C3.78152 0.904675 5.7139 0.0682562 7.74712 0.00399624C9.78034 -0.0602638 11.7617 0.652463 13.2881 1.99718C14.8145 3.3419 15.7712 5.21761 15.9637 7.24271C16.1563 9.26782 15.5701 11.2902 14.3244 12.8985H14.3254ZM8.00057 13.9994C9.59184 13.9994 11.1179 13.3673 12.2431 12.2421C13.3683 11.1169 14.0004 9.59084 14.0004 7.99957C14.0004 6.40831 13.3683 4.88222 12.2431 3.75702C11.1179 2.63183 9.59184 1.9997 8.00057 1.9997C6.40931 1.9997 4.88322 2.63183 3.75802 3.75702C2.63283 4.88222 2.0007 6.40831 2.0007 7.99957C2.0007 9.59084 2.63283 11.1169 3.75802 12.2421C4.88322 13.3673 6.40931 13.9994 8.00057 13.9994Z" fill="#282828"/>
</svg>
