<svg width="16" height="13" viewBox="0 0 16 13" fill="none" xmlns="http://www.w3.org/2000/svg">
<path d="M14.4 0H1.6C0.72 0 0.00799999 0.73125 0.00799999 1.625L0 11.375C0 12.2688 0.72 13 1.6 13H14.4C15.28 13 16 12.2688 16 11.375V1.625C16 0.73125 15.28 0 14.4 0ZM13.6 11.375H2.4C1.96 11.375 1.6 11.0094 1.6 10.5625V3.25L7.152 6.77625C7.672 7.10938 8.328 7.10938 8.848 6.77625L14.4 3.25V10.5625C14.4 11.0094 14.04 11.375 13.6 11.375ZM8 5.6875L1.6 1.625H14.4L8 5.6875Z" fill="white" fill-opacity="0.9"/>
</svg>
