<svg width="20" height="12" viewBox="0 0 20 12" fill="none" xmlns="http://www.w3.org/2000/svg">
<path d="M17.1239 7.32167C17.7608 7.96262 18.433 8.56567 19.0043 9.27126C19.2566 9.58482 19.4955 9.90838 19.6782 10.2723C19.9372 10.7895 19.7027 11.3588 19.2527 11.3897L16.4556 11.3884C15.7342 11.4501 15.1587 11.1507 14.6747 10.6423C14.2875 10.2357 13.9288 9.80291 13.5565 9.38259C13.4038 9.21079 13.244 9.04913 13.0531 8.92136C12.6713 8.66587 12.3398 8.7441 12.1216 9.15461C11.8994 9.57214 11.849 10.0345 11.8272 10.4998C11.7972 11.1787 11.5981 11.3572 10.9365 11.3883C9.52255 11.457 8.18064 11.2365 6.93405 10.5013C5.83502 9.85311 4.98276 8.93807 4.24097 7.90215C2.79668 5.88499 1.69064 3.66846 0.696576 1.38984C0.47282 0.876461 0.636458 0.600883 1.18598 0.591129C2.09847 0.572857 3.01085 0.574157 3.92442 0.589829C4.29528 0.595421 4.5408 0.814687 4.684 1.17584C5.17769 2.42713 5.78178 3.61761 6.54004 4.7211C6.74196 5.01488 6.94787 5.30867 7.24108 5.51545C7.56545 5.74441 7.81242 5.66852 7.96502 5.29605C8.06186 5.05988 8.10425 4.8055 8.12607 4.55255C8.19837 3.68231 8.20789 2.81357 8.0811 1.94639C8.00325 1.40518 7.70752 1.05483 7.18361 0.952411C6.91626 0.900196 6.95607 0.79765 7.08552 0.640353C7.31034 0.369067 7.5218 0.200195 7.94332 0.200195H11.1045C11.6021 0.30144 11.7127 0.531891 11.7808 1.04806L11.7835 4.66758C11.7781 4.86741 11.8803 5.46037 12.2295 5.59264C12.509 5.68679 12.6932 5.45634 12.8608 5.27369C13.6177 4.44565 14.1579 3.46708 14.6405 2.45379C14.8547 2.00823 15.0388 1.54551 15.2173 1.08318C15.3495 0.740103 15.557 0.571296 15.9319 0.578774L18.9743 0.58157C19.0645 0.58157 19.1558 0.582936 19.2432 0.598347C19.7558 0.688407 19.8963 0.915737 19.738 1.43178C19.4885 2.24141 19.0031 2.91612 18.5284 3.59395C18.0211 4.31761 17.4784 5.01651 16.9753 5.74447C16.513 6.40923 16.5497 6.7443 17.1239 7.32167Z" fill="white"/>
</svg>
